<svg width="91" height="67" viewBox="0 0 91 67" fill="none" xmlns="http://www.w3.org/2000/svg">
<path d="M34.88 55.665H32.2916L28.4548 60.2821V55.665H26.3253V66.327H28.4548V61.3576L32.2916 66.327H35.0452L30.6026 60.6345L34.88 55.665Z" fill="black"/>
<path d="M19.2207 44.4472V24.9219L0 44.4472H19.2207Z" fill="#009039"/>
<path d="M38.3312 54.8496H36.3853V66.3275H38.3312V54.8496Z" fill="black"/>
<path d="M46.9778 62.6183V61.6355C46.9778 59.2806 46.0048 58.2979 43.5999 58.2979C42.7188 58.2979 41.654 58.4833 40.9381 58.9283V60.6528C41.654 60.115 42.5352 59.8369 43.4347 59.8369H43.6183C44.6831 59.8369 45.142 60.2819 45.142 61.4686L43.6183 61.5613C42.8289 61.5613 42.0212 61.6541 41.397 61.9137C40.6811 62.3772 40.0569 63.0077 40.0569 64.1758C40.0569 65.7149 41.397 66.5307 42.8289 66.5307C43.0859 66.5307 43.4531 66.5307 43.6183 66.438C44.2425 66.2526 44.8666 65.8076 45.2154 65.1771C45.2154 65.4553 45.2154 65.993 45.2889 66.3453H47.0696C47.0696 65.7149 46.9778 65.1771 46.9778 64.6209C46.9778 63.9904 46.9778 63.4341 46.9778 62.6183ZM44.6463 64.3427C44.2975 64.7136 43.8386 64.8805 43.5816 64.9732C43.398 65.0659 43.3246 65.0659 43.2144 65.0659C42.4985 65.0659 41.9661 64.7136 41.9661 64.0646C41.9661 63.156 42.6821 62.8037 43.5632 62.711C43.5632 62.711 44.0038 62.711 44.1874 62.711H45.0686C45.1053 63.3414 45.0135 63.8977 44.6463 64.3427Z" fill="black"/>
<path d="M53.3663 58.28C53.1092 58.28 52.7421 58.3727 52.7421 58.3727C52.0261 58.4654 51.4938 58.9104 51.0532 59.4482H50.9614V54.8311H49.0154V66.3089H50.9614V65.4003C51.402 65.9381 52.0261 66.3089 52.7421 66.4758C52.7421 66.4758 53.1092 66.4758 53.3663 66.4758C55.7711 66.4758 56.5605 64.4917 56.5605 62.3223C56.5789 60.1899 55.7711 58.28 53.3663 58.28ZM52.8339 64.9738H52.7421C51.4203 64.8811 51.0532 63.5275 51.0532 62.3593C51.0532 61.2653 51.4937 60.0044 52.7421 59.9117H52.8339C54.1556 59.9117 54.5228 61.358 54.5228 62.3593C54.5228 63.4348 54.0822 64.9738 52.8339 64.9738Z" fill="black"/>
<path d="M60.3239 55.0352H58.2678V57.0192H60.3239V55.0352Z" fill="black"/>
<path d="M78.1128 0.59375H72.1465H67.0797H52.7422H43.5816H43.0493L26.3253 17.6715V44.447H37.8907L27.133 33.5068L37.8907 22.5667H43.5816H47.859L43.5816 26.9057L37.1013 33.5068L43.5816 40.0153L47.859 44.447L52.7422 39.4776L67.0797 24.9216L72.1465 19.7668L78.1128 13.7034L88.9439 2.67052L91 0.59375H88.9439H78.1128Z" fill="#009039"/>
<path d="M60.3239 58.4658H58.2678V66.3279H60.3239V58.4658Z" fill="black"/>
<path d="M67.0796 58.2793C66.9878 58.2793 66.896 58.2793 66.8042 58.2793C65.7395 58.2793 64.8399 58.6316 64.2158 59.5402V58.4647H62.2515V66.3268H64.2892V62.4328C64.2892 61.4315 64.5646 59.8925 66.0699 59.8925C66.5105 59.8925 66.8776 59.9852 67.0429 60.2448C67.3917 60.6898 67.3917 61.5057 67.3917 62.1362V66.2897H69.4294V61.3203C69.4845 59.6329 68.6767 58.372 67.0796 58.2793Z" fill="black"/>
</svg>
